<svg width="100" height="99" viewBox="0 0 100 99" fill="none" xmlns="http://www.w3.org/2000/svg">
<path fill-rule="evenodd" clip-rule="evenodd" d="M19.2371 71.8483C13.9449 65.512 14.7367 56.1657 15.6927 47.994C16.4852 41.2222 20.0962 35.4236 24.1397 29.9531C27.7171 25.1125 31.9765 20.8731 37.503 18.4811C42.9527 16.1223 48.8758 16.2508 54.8133 16.6772C61.6734 17.17 69.6159 16.2258 74.4599 21.1358C79.3249 26.0669 77.4837 34.1198 78.732 40.9218C80.097 48.362 85.457 56.0456 82.1046 62.7972C78.7476 69.5608 69.6118 70.3283 62.6649 73.285C55.9278 76.1527 49.5667 80.0126 42.2323 79.7698C33.9403 79.4957 24.5716 78.2353 19.2371 71.8483Z" fill="#E9BEB6"/>
<path d="M72.103 43.2222C72.103 36.9596 66.8286 31 60.353 31C53.8775 31 48.603 36.2525 48.603 42.5152C48.603 36.2525 43.3286 31 36.853 31C30.3775 31 25.103 36.9596 25.103 43.2222C25.103 45.6465 25.2597 52.5152 31.7875 59.6364C39.203 67.7172 48.603 71 48.603 71C48.603 71 58.003 67.7172 65.4186 59.6364C71.9464 52.5657 72.103 45.8485 72.103 43.2222Z" fill="#B24331"/>
</svg>
