<svg width="82" height="69" viewBox="0 0 82 69" fill="none" xmlns="http://www.w3.org/2000/svg">
<path fill-rule="evenodd" clip-rule="evenodd" d="M38.9026 8.0013C44.6783 9.49332 50.2674 11.7156 55.5518 14.6211C65.0636 20.0361 79.9147 21.0848 81.814 32.4292C83.6793 43.5716 71.0979 50.9598 62.8149 58.0056C55.7628 64.0042 47.9022 68.4634 38.9026 68.9307C29.3929 69.425 19.7011 67.3387 12.5493 60.6165C8.80084 57.0599 5.76313 52.7296 3.61856 47.8858C1.47399 43.042 0.266802 37.7845 0.0695019 32.4292C-0.376336 21.1624 1.13198 7.46732 10.2199 1.75056C18.9633 -3.74935 29.0988 5.2179 38.9026 8.0013Z" fill="#B24331"/>
<path fill-rule="evenodd" clip-rule="evenodd" d="M14.2948 28.0309C15.5621 27.3225 16.4349 27.6913 17.8998 28.331C19.574 29.039 21.8508 29.9812 24.492 28.5048C27.1124 27.04 27.6859 24.5091 28.1037 22.6657L28.1137 22.6215C28.4526 21.0043 28.6663 19.9973 29.9336 19.2889C31.2009 18.5805 32.078 18.9468 33.543 19.5866C35.2172 20.2945 37.4939 21.2368 40.1397 19.7578C42.7644 18.2906 43.338 15.7596 43.7558 13.9162L43.7658 13.8721L43.7661 13.8706C44.1078 12.2603 44.3232 11.2452 45.5946 10.5345C46.8663 9.82364 47.742 10.1985 49.204 10.8322C50.8826 11.5376 53.1594 12.4799 55.8051 11.0009C56.2768 10.7372 56.6039 10.2292 56.7143 9.58856C56.8246 8.94793 56.7094 8.22718 56.3937 7.58488C56.0781 6.94258 55.588 6.43133 55.0313 6.16362C54.4746 5.8959 53.8968 5.89364 53.4251 6.15733C52.1533 6.86822 51.2776 6.49336 49.8112 5.86219C48.137 5.15422 45.8603 4.21198 43.2145 5.69093C40.5898 7.15815 40.0162 9.6891 39.5984 11.5326L39.5885 11.5767L39.5881 11.5781C39.2464 13.1884 39.031 14.2035 37.7596 14.9142C36.4879 15.6251 35.6152 15.2563 34.1502 14.6166C32.476 13.9086 30.1993 12.9664 27.5536 14.4453C24.9078 15.9243 24.3418 18.4865 23.9364 20.3261C23.5974 21.9433 23.3793 22.9527 22.112 23.6612C20.8447 24.3696 19.972 24.0008 18.507 23.361L18.4788 23.3493C16.8232 22.6639 14.5411 21.7192 11.9148 23.1873C11.4431 23.451 11.1161 23.959 11.0057 24.5997C10.8953 25.2403 11.0106 25.961 11.3262 26.6033C11.6418 27.2456 12.1319 27.7569 12.6886 28.0246C13.2453 28.2923 13.8231 28.2946 14.2948 28.0309ZM21.4348 42.5619C22.7021 41.8535 23.5748 42.2223 25.0398 42.862C26.714 43.5699 28.9907 44.5122 31.632 43.0357C34.2523 41.571 34.8259 39.0401 35.2437 37.1966L35.2537 37.1525C35.5926 35.5353 35.8063 34.5283 37.0736 33.8199C38.3409 33.1115 39.218 33.4778 40.683 34.1175C42.3572 34.8255 44.6339 35.7677 47.2797 34.2888C49.9044 32.8216 50.478 30.2906 50.8958 28.4471L50.9058 28.4031L50.9061 28.4016C51.2478 26.7913 51.4632 25.7762 52.7346 25.0655C54.0063 24.3546 54.882 24.7295 56.344 25.3631C58.0226 26.0686 60.2994 27.0109 62.9451 25.5319C63.4168 25.2682 63.7439 24.7602 63.8542 24.1195C63.9646 23.4789 63.8493 22.7581 63.5337 22.1158C63.2181 21.4735 62.728 20.9623 62.1713 20.6946C61.6146 20.4269 61.0368 20.4246 60.5651 20.6883C59.2933 21.3992 58.4176 21.0243 56.9512 20.3932C55.277 19.6852 53.0003 18.7429 50.3545 20.2219C47.7298 21.6891 47.1562 24.2201 46.7384 26.0635L46.7284 26.1076L46.7281 26.1091C46.3864 27.7194 46.171 28.7345 44.8996 29.4452C43.6279 30.1561 42.7552 29.7873 41.2902 29.1475C39.616 28.4396 37.3393 27.4973 34.6935 28.9763C32.0478 30.4552 31.4817 33.0175 31.0763 34.857C30.7374 36.4743 30.5193 37.4837 29.252 38.1921C27.9847 38.9005 27.112 38.5317 25.647 37.892L25.6188 37.8803C23.9632 37.1949 21.6811 36.2502 19.0548 37.7183C18.5831 37.9819 18.256 38.49 18.1456 39.1306C18.0353 39.7713 18.1506 40.492 18.4662 41.1343C18.7818 41.7766 19.2719 42.2879 19.8286 42.5556C20.3853 42.8233 20.9631 42.8256 21.4348 42.5619ZM32.1799 57.3925C30.715 56.7528 29.8423 56.384 28.575 57.0924C28.1033 57.3561 27.5255 57.3538 26.9688 57.0861C26.412 56.8184 25.9219 56.3071 25.6063 55.6648C25.2907 55.0225 25.1754 54.3018 25.2858 53.6612C25.3962 53.0205 25.7232 52.5125 26.1949 52.2488C28.8213 50.7807 31.1033 51.7254 32.7589 52.4108L32.7872 52.4225C34.2521 53.0622 35.1249 53.4311 36.3921 52.7226C37.6594 52.0142 37.8776 51.0048 38.2165 49.3876C38.6219 47.548 39.188 44.9858 41.8337 43.5068C44.4794 42.0279 46.7562 42.9701 48.4304 43.6781C49.8953 44.3178 50.7681 44.6866 52.0398 43.9757C53.3111 43.265 53.5266 42.2499 53.8683 40.6396L53.8686 40.6381L53.8786 40.5941C54.2964 38.7506 54.8699 36.2196 57.4947 34.7524C60.1404 33.2735 62.4172 34.2157 64.0914 34.9237C65.5578 35.5549 66.4335 35.9297 67.7052 35.2188C68.1769 34.9551 68.7547 34.9574 69.3115 35.2251C69.8682 35.4928 70.3583 36.0041 70.6739 36.6464C70.9895 37.2887 71.1048 38.0094 70.9944 38.6501C70.884 39.2907 70.557 39.7987 70.0853 40.0624C67.4395 41.5414 65.1628 40.5991 63.4841 39.8937C62.0221 39.26 61.1465 38.8851 59.8747 39.596C58.6034 40.3067 58.388 41.3218 58.0462 42.9321L58.0459 42.9336L58.0359 42.9777C57.6181 44.8211 57.0446 47.3521 54.4198 48.8193C51.7741 50.2983 49.4973 49.356 47.8231 48.648C46.3582 48.0083 45.481 47.642 44.2137 48.3504C42.9465 49.0588 42.7328 50.0658 42.3938 51.683L42.3838 51.7271C41.966 53.5706 41.3925 56.1015 38.7722 57.5662C36.1309 59.0427 33.8541 58.1005 32.1799 57.3925Z" fill="#EEE8E5"/>
</svg>
