<svg width="70" height="66" viewBox="0 0 70 66" fill="none" xmlns="http://www.w3.org/2000/svg">
<path fill-rule="evenodd" clip-rule="evenodd" d="M39.3606 0.0120042C45.9123 -0.121196 52.6475 0.818204 57.9727 4.6373C63.3166 8.4699 66.7253 14.4611 68.3814 20.8253C69.9694 26.9281 68.3914 33.082 66.9732 39.2266C65.4059 46.0178 64.8118 53.522 59.7341 58.2966C54.38 63.3307 46.6958 64.7354 39.3606 65.19C31.6206 65.67 23.2353 65.64 17.0663 60.94C10.9475 56.2791 9.92531 47.898 7.21241 40.7C4.33611 33.069 -2.24469 25.2932 0.775112 17.7175C3.80381 10.12 13.8563 8.7945 21.29 5.3832C27.145 2.6968 32.9205 0.143004 39.3606 0.0120042Z" fill="#E2AA79"/>
<path fill-rule="evenodd" clip-rule="evenodd" d="M42.2526 31.7904L50.3272 42.4038C52.5342 45.3048 51.9717 49.4456 49.0707 51.6527C47.9218 52.5267 46.5181 53 45.0745 53H28.9253C25.2802 53 22.3253 50.0451 22.3253 46.4C22.3253 44.9564 22.7986 43.5527 23.6726 42.4038L31.7472 31.7904C33.9543 28.8894 38.0951 28.3269 40.9961 30.5339C41.4696 30.8942 41.8923 31.3168 42.2526 31.7904ZM30.3333 13C32.7879 13 34.7778 14.9898 34.7778 17.4444V19.6667C34.7778 22.1213 32.7879 24.1111 30.3333 24.1111C27.8787 24.1111 25.8889 22.1213 25.8889 19.6667V17.4444C25.8889 14.9898 27.8787 13 30.3333 13ZM21.4444 24.1111C23.899 24.1111 25.8889 26.101 25.8889 28.5556V30.7778C25.8889 33.2324 23.899 35.2222 21.4444 35.2222C18.9898 35.2222 17 33.2324 17 30.7778V28.5556C17 26.101 18.9898 24.1111 21.4444 24.1111ZM43.6667 13C46.1213 13 48.1111 14.9898 48.1111 17.4444V19.6667C48.1111 22.1213 46.1213 24.1111 43.6667 24.1111C41.2121 24.1111 39.2222 22.1213 39.2222 19.6667V17.4444C39.2222 14.9898 41.2121 13 43.6667 13ZM52.5556 24.1111C55.0102 24.1111 57 26.101 57 28.5556V30.7778C57 33.2324 55.0102 35.2222 52.5556 35.2222C50.101 35.2222 48.1111 33.2324 48.1111 30.7778V28.5556C48.1111 26.101 50.101 24.1111 52.5556 24.1111Z" fill="#F7F6F5"/>
</svg>
