<svg width="72" height="71" viewBox="0 0 72 71" fill="none" xmlns="http://www.w3.org/2000/svg">
<path fill-rule="evenodd" clip-rule="evenodd" d="M31.4118 0.0354551C48.1926 -0.633645 64.8538 8.19545 70.076 24.1568C75.326 40.2046 67.3545 57.4956 53.2454 66.7708C40.9019 74.8853 25.2597 70.3108 13.5329 61.3277C2.83489 53.1328 -2.57441 39.84 1.19929 26.9029C5.37159 12.5992 16.5239 0.628955 31.4118 0.0354551Z" fill="#DA714D"/>
<path fill-rule="evenodd" clip-rule="evenodd" d="M23.9462 26.0722L35.5988 15.5885C35.9465 15.2864 36.3709 15.091 36.823 15.0249C37.275 14.9588 37.7362 15.0248 38.153 15.2151C38.5698 15.4054 38.9253 15.7122 39.1782 16.1002C39.4311 16.4881 39.5711 16.9412 39.5821 17.4069V52.5363C39.5817 53.0108 39.447 53.4751 39.1944 53.8736C38.9418 54.272 38.5818 54.5876 38.1577 54.7824C37.7336 54.9773 37.2635 55.0432 36.8036 54.9723C36.3437 54.9013 35.9137 54.6964 35.5651 54.3823L24.088 44.0501H18.1401C17.5838 44.0594 17.0464 43.8436 16.6454 43.45C16.2444 43.0563 16.0124 42.5168 16 41.9492V28.173C16.0124 27.6055 16.2444 27.0659 16.6454 26.6723C17.0464 26.2787 17.5838 26.0629 18.1401 26.0722H23.9462ZM55.4676 30.6528L51.2009 35.013L55.4676 39.3387C55.6303 39.489 55.7613 39.6716 55.8527 39.8752C55.9442 40.0787 55.9941 40.2992 55.9995 40.523C56.0049 40.7469 55.9657 40.9696 55.8842 41.1775C55.8027 41.3855 55.6806 41.5743 55.5254 41.7327C55.3702 41.891 55.1851 42.0156 54.9813 42.0987C54.7775 42.1819 54.5592 42.2219 54.3398 42.2164C54.1204 42.2109 53.9043 42.1599 53.7048 42.0667C53.5052 41.9734 53.3264 41.8397 53.179 41.6737L48.9122 37.3205L44.6454 41.6737C44.5034 41.8548 44.3257 42.0033 44.1238 42.1097C43.9219 42.2161 43.7003 42.278 43.4734 42.2913C43.2465 42.3046 43.0194 42.2691 42.8069 42.187C42.5943 42.105 42.4011 41.9782 42.2397 41.815C42.0783 41.6518 41.9523 41.4557 41.87 41.2396C41.7877 41.0235 41.7509 40.7921 41.7619 40.5606C41.773 40.329 41.8316 40.1023 41.9341 39.8954C42.0366 39.6885 42.1806 39.5058 42.3567 39.3593L46.6235 35.0061L42.3567 30.6528C42.0898 30.3363 41.9501 29.9286 41.9657 29.5114C41.9813 29.0942 42.151 28.6985 42.4408 28.4037C42.7306 28.109 43.1189 27.937 43.5279 27.9223C43.9368 27.9076 44.3361 28.0513 44.6454 28.3246L48.9122 32.6779L53.179 28.3177C53.4872 28.0328 53.891 27.8797 54.3068 27.8901C54.7226 27.9006 55.1185 28.0738 55.4126 28.3738C55.7067 28.6739 55.8765 29.0779 55.8867 29.5021C55.897 29.9263 55.7469 30.3383 55.4676 30.6528Z" fill="#F7F6F5"/>
</svg>
