<svg width="76" height="85" viewBox="0 0 76 85" fill="none" xmlns="http://www.w3.org/2000/svg">
<path fill-rule="evenodd" clip-rule="evenodd" d="M40.6268 0.0115442C53.9502 -0.300556 68.2807 5.71944 74.3096 17.6044C79.6546 28.1413 69.3953 38.9317 66.1296 50.2863C63.2778 60.2007 65.2196 72.1402 56.8777 78.2103C51.965 81.74 46.225 83.9428 40.2122 84.6059C34.1994 85.269 28.1173 84.37 22.5535 81.9956C11.0789 76.9358 3.57852 65.7838 0.910218 53.5305C-1.72368 41.4339 1.48852 29.0792 8.86622 19.1375C16.6147 8.69644 27.6284 0.316044 40.6268 0.0115442Z" fill="#0D5C57"/>
<path d="M36 27C24.9544 27 16 35.9543 16 47C16 58.0457 24.9544 67 36 67C47.0456 67 56 58.0457 56 47C56 35.9543 47.0456 27 36 27ZM28.5 37.625C30.2259 37.625 31.625 39.0241 31.625 40.75C31.625 42.4759 30.2259 43.875 28.5 43.875C26.7741 43.875 25.375 42.4759 25.375 40.75C25.375 39.0241 26.7741 37.625 28.5 37.625ZM43.5 37.625C45.2259 37.625 46.625 39.0241 46.625 40.75C46.625 42.4759 45.2259 43.875 43.5 43.875C41.7741 43.875 40.375 42.4759 40.375 40.75C40.375 39.0241 41.7741 37.625 43.5 37.625ZM27.1914 51.3555C27.4003 51.3466 27.6081 51.3902 27.7957 51.4823C27.9834 51.5744 28.1449 51.7121 28.2656 51.8828C29.9586 54.2043 32.7746 55.75 36 55.75C39.2254 55.75 42.0414 54.2043 43.7344 51.8828C43.8303 51.7487 43.9517 51.6349 44.0917 51.5479C44.2317 51.4609 44.3875 51.4024 44.5502 51.3757C44.7128 51.349 44.8792 51.3547 45.0396 51.3925C45.2001 51.4302 45.3515 51.4993 45.4852 51.5957C45.6189 51.6921 45.7323 51.814 45.8188 51.9543C45.9052 52.0947 45.9632 52.2507 45.9892 52.4134C46.0153 52.5762 46.0089 52.7425 45.9706 52.9028C45.9322 53.0631 45.8626 53.2143 45.7656 53.3476C43.6031 56.3129 40.0219 58.25 36 58.25C31.9781 58.25 28.3969 56.3129 26.2344 53.3476C26.0993 53.1648 26.0166 52.9486 25.9952 52.7224C25.9738 52.4961 26.0145 52.2682 26.113 52.0634C26.2114 51.8585 26.3638 51.6843 26.5538 51.5596C26.7439 51.4348 26.9643 51.3643 27.1914 51.3555Z" fill="#DFE6BD"/>
</svg>
