<svg width="70" height="65" viewBox="0 0 70 65" fill="none" xmlns="http://www.w3.org/2000/svg">
<path fill-rule="evenodd" clip-rule="evenodd" d="M36.2523 4.82002C42.8961 5.64352 50.4037 2.72142 55.7492 6.75172C61.0792 10.77 60.7392 18.6137 62.9159 24.9234C65.1472 31.3906 71.142 37.7434 68.6388 44.1099C66.1253 50.503 57.1353 50.6647 51.3435 54.3582C46.0625 57.726 42.4722 64.0259 36.2523 64.7631C29.78 65.53 24.03 61.4085 18.3171 58.272C11.7132 54.6464 3.05793 52.2916 0.578626 45.1775C-1.90387 38.0544 4.28003 31.1234 6.32533 23.8625C8.49003 16.1776 6.16063 5.72622 12.8965 1.44002C19.7 -2.88898 28.25 3.82772 36.2523 4.82002Z" fill="#F7ECCE"/>
<path d="M37.7207 28.3843C28.3147 35.3041 19.9069 41.8538 17.5545 53C26.6964 47.4175 38.7914 46.0941 45.1998 39.3441C51.8134 32.3805 50.6403 22.749 51 13C43.3047 16.1984 35.6821 17.9715 27.8822 19.5394C12.9558 22.5408 6.64134 36.7535 14.2119 49.9638C22.5989 36.6928 28.6835 30.9167 37.7207 28.3843Z" fill="#E2AA79"/>
</svg>
