<svg width="80" height="77" viewBox="0 0 80 77" fill="none" xmlns="http://www.w3.org/2000/svg">
<path fill-rule="evenodd" clip-rule="evenodd" d="M38.473 1.01897C45.0668 2.21807 49.6622 7.47757 55.6523 10.4832C63.3557 14.3482 74.5712 13.4567 78.5252 21.1147C82.4352 28.6875 76.9571 37.6919 73.7852 45.6021C70.8219 52.99 66.9436 59.82 60.917 65.02C54.4451 70.604 47.019 75.8844 38.473 76.0693C29.8464 76.2558 22.1112 71.3193 15.3124 66.0063C8.71669 60.8523 2.56319 54.5743 0.564392 46.4458C-1.36461 38.6007 2.05179 30.7852 4.78199 23.1817C7.42339 15.8258 9.53339 7.57907 16.0629 3.28377C22.4928 -0.945932 30.9008 -0.358031 38.473 1.01897Z" fill="#DFE6BD"/>
<path fill-rule="evenodd" clip-rule="evenodd" d="M31.8142 25.2032L43.6722 37.403C49.7295 28.6361 47.5221 14.4822 31.6089 12C31.6803 12.1442 31.7546 12.2921 31.8307 12.4437L31.8308 12.4439C33.2327 15.2347 35.271 19.2926 31.8142 25.2032ZM24.7303 33.1705L24.7303 33.1706L24.4222 33.4419C18.5189 39.0401 20.2129 45.5361 23.1389 50.4477C25.7569 54.5143 29.5555 57.6302 36.7935 57.9999C33.9188 50.9758 35.3562 48.0711 38.5388 44.0573L26.4242 31.6463C25.8972 32.1433 25.3326 32.6403 24.7305 33.1704L24.7304 33.1705L24.7303 33.1705ZM40.2842 57.5775C38.8982 53.8278 37.8716 50.6062 40.8489 46.6452L40.9515 46.5396L47.6762 53.5109C44.8015 56.2043 41.5675 57.5775 40.2842 57.5775ZM52.5014 46.487C53.8874 42.526 53.7334 37.5616 50.3968 31.6994C49.6781 34.34 47.9328 37.1919 46.0334 39.8326L52.5014 46.487ZM17 18.1506L19.1779 15.91L57 54.8224L54.8221 57.0631L17 18.1506Z" fill="#481C29"/>
</svg>
