<svg width="79" height="63" viewBox="0 0 79 63" fill="none" xmlns="http://www.w3.org/2000/svg">
<path fill-rule="evenodd" clip-rule="evenodd" d="M44.4779 9.01189C52.2097 7.45688 58.4734 -1.99116 65.9963 0.379558C73.0087 2.58953 74.5872 12.1244 76.7188 19.1725C78.6431 25.5343 80.2744 32.6151 77.584 38.6915C75.0414 44.4338 68.3715 46.7227 63.0493 50.0442C59.1818 52.458 54.9002 53.474 50.7788 55.4207C45.6977 57.8209 41.4657 64.1552 36.0093 62.8162C30.6139 61.4921 31.1971 52.5411 26.5598 49.4772C18.9938 44.4788 6.25902 47.8966 1.62132 40.096C-2.53202 33.1104 2.01374 23.1361 7.16216 16.8509C12.0194 10.9221 20.3844 9.61957 27.8774 8.04557C33.4143 6.88234 38.9311 10.1274 44.4779 9.01189Z" fill="#D2D9E6"/>
<path fill-rule="evenodd" clip-rule="evenodd" d="M37.7637 21.0852L41.7206 21.6743C43.4464 21.9462 44.7934 23.3962 45.046 25.254L45.5932 29.5134C45.6353 29.7853 45.9721 29.7853 46.0142 29.5134L46.5614 25.254C46.814 23.3962 48.161 21.9462 49.8868 21.6743L53.8437 21.0852C54.0963 21.0399 54.0963 20.6774 53.8437 20.6321L49.8868 20.043C48.161 19.7712 46.814 18.3211 46.5614 16.4633L46.0142 12.2039C45.9721 11.932 45.6353 11.932 45.5932 12.2039L45.046 16.5086C44.7934 18.3665 43.4464 19.8165 41.7206 20.0884L37.7637 20.6774C37.5112 20.6774 37.5112 21.0399 37.7637 21.0852ZM38.6898 33.365C36.08 32.9572 34.0174 30.7368 33.6385 27.9274L32.7966 21.4024C32.7545 21.0399 32.2494 21.0399 32.2073 21.4024L31.3654 27.9274C30.9866 30.7368 28.924 32.9572 26.3141 33.365L20.2526 34.2712C19.9158 34.3166 19.9158 34.8603 20.2526 34.9056L26.3141 35.8119C28.924 36.2197 30.9866 38.44 31.3654 41.2494L32.2073 47.7745C32.2494 48.137 32.7545 48.137 32.7966 47.7745L33.6385 41.2494C34.0174 38.44 36.08 36.2197 38.6898 35.8119L44.7514 34.9056C45.0881 34.8603 45.0881 34.3166 44.7514 34.2712L38.6898 33.365ZM55.0646 40.4792L59.7791 41.2042C60.0738 41.2495 60.0738 41.6573 59.7791 41.7026L55.0646 42.4277C53.0019 42.7448 51.4024 44.4667 51.1077 46.6871L50.4342 51.7621C50.3921 52.0793 50.0133 52.0793 49.9712 51.7621L49.2977 46.6871C49.003 44.4667 47.4034 42.7448 45.3408 42.4277L40.6263 41.7026C40.3316 41.6573 40.3316 41.2495 40.6263 41.2042L45.3408 40.4792C47.4034 40.162 49.003 38.4401 49.2977 36.2198L49.9712 31.1447C50.0133 30.8275 50.3921 30.8275 50.4342 31.1447L51.1077 36.2198C51.4024 38.4401 53.0019 40.162 55.0646 40.4792Z" fill="#002558"/>
</svg>
