<svg width="89" height="143" viewBox="0 0 89 143" fill="none" xmlns="http://www.w3.org/2000/svg">
<g clip-path="url(#clip0)">
<path fill-rule="evenodd" clip-rule="evenodd" d="M48.102 36.105C56.503 29.1159 63.9771 17.4505 74.6368 17.9876C85.5514 18.5373 88.5953 33.4117 97.8948 38.6143C107.007 43.7115 122.632 38.5306 127.592 47.6076C132.511 56.6094 124.23 68.1633 119.242 77.6771C115.483 84.8476 108.464 89.3158 102.686 95.1131C97.6494 100.166 92.691 104.689 87.469 109.557C78.0869 118.302 72.3388 135.029 59.7616 135.124C48.2192 135.211 46.5104 118.127 39.0177 109.922C31.8472 102.071 19.0203 98.4577 16.7167 87.9898C14.4086 77.4977 21.636 66.837 27.4286 57.2609C32.5968 48.7167 40.3531 42.5513 48.102 36.105Z" fill="#E2AA79"/>
</g>
<defs>
<clipPath id="clip0">
<path d="M0.31543 67.1746L93.658 0.194315L147.548 75.2941L54.2051 142.274L0.31543 67.1746Z" fill="white"/>
</clipPath>
</defs>
</svg>
