<svg width="375" height="899" viewBox="0 0 375 899" fill="none" xmlns="http://www.w3.org/2000/svg">
<path d="M0 9.80439C0 9.80439 28.0116 -29.1224 396.164 48.1524C764.316 125.427 377.156 9.80439 377.156 9.80439V899L0 899V9.80439Z" fill="#F7F6F5"/>
<path fill-rule="evenodd" clip-rule="evenodd" d="M-89.8725 682.941C-50.1938 660.485 -6.15231 720.756 39.2428 717.335C74.3796 714.688 94.3829 666.21 129.606 666.406C166.617 666.612 203.606 688.228 224.953 718.37C235.432 733.787 242.386 751.333 245.326 769.766C248.266 788.2 247.119 807.072 241.966 825.049C232.401 857.532 190.262 867.603 172.514 896.473C156.196 923.016 167.432 962.495 144.497 983.596C120.81 1005.39 84.8133 1003.41 52.8401 1006.58C14.974 1010.32 -29.3945 1027.59 -58.9042 1003.72C-88.5836 979.716 -76.5978 931.758 -85.596 894.618C-93.3323 862.692 -107.423 833.593 -108.089 800.719C-108.904 760.213 -125.203 702.938 -89.8725 682.941Z" fill="#F7ECCE"/>
<path d="M212.906 309.069C209.151 316.545 215.391 321.151 229.396 358.839C245.694 402.694 242.049 409.383 252.197 419.221C273.661 440.031 315.379 434.742 341.102 423.747C387.091 404.09 403.132 357.144 411.079 333.886C419.451 309.387 431.172 275.088 413.804 243.93C400.927 220.826 372.272 199.837 354.294 207.104C331.387 216.362 349.154 262.055 320.597 287.613C286.586 318.051 224.26 286.465 212.906 309.069Z" fill="#0D5C57"/>
<path fill-rule="evenodd" clip-rule="evenodd" d="M243.358 339.146C248.039 344.37 242.82 352.249 240.899 358.995C239.468 364.018 238.478 369.56 233.954 372.169C229.478 374.751 224.159 373.059 219.237 371.488C213.795 369.752 208.009 368.071 205.317 363.034C201.983 356.795 199.685 348.541 203.964 342.909C208.136 337.418 216.439 340.017 223.303 339.361C230.305 338.693 238.664 333.908 243.358 339.146Z" fill="#A0C5BF"/>
</svg>
