<svg width="24" height="24" viewBox="0 0 24 24" fill="none" xmlns="http://www.w3.org/2000/svg">
<path fill-rule="evenodd" clip-rule="evenodd" d="M7.0525 0.0722133C8.33222 0.0138144 8.74101 0 11.9999 0C15.2589 0 15.6677 0.0138139 16.9475 0.0724514C18.2247 0.130517 19.097 0.333343 19.8603 0.62977C20.6611 0.93115 21.3865 1.4036 21.9859 2.01416C22.5963 2.61355 23.0687 3.33889 23.37 4.13959C23.6667 4.90288 23.8695 5.77516 23.9278 7.05246C23.9862 8.3322 24 8.74104 24 12C24 15.259 23.9862 15.6677 23.9278 16.9476C23.8695 18.2248 23.6667 19.0971 23.37 19.8605C22.7466 21.4723 21.4724 22.7466 19.8605 23.37C19.0972 23.6667 18.2249 23.8695 16.9476 23.9278C15.6679 23.9862 15.2591 24 12.0001 24C8.74117 24 8.33251 23.9862 7.0526 23.9278C5.77535 23.8695 4.90308 23.6667 4.13975 23.37C3.33905 23.0687 2.61372 22.5963 2.01433 21.9859C1.4039 21.3865 0.931556 20.6612 0.630241 19.8605C0.333579 19.0972 0.130755 18.2249 0.0724509 16.9476C0.0138138 15.6678 0 15.2591 0 12C0 8.741 0.0138138 8.3322 0.0724509 7.05246C0.130516 5.77516 0.333341 4.90288 0.629765 4.13954C0.93119 3.33881 1.40367 2.61347 2.01424 2.01411C2.61363 1.40367 3.33896 0.931324 4.13965 0.630008C4.90294 0.333343 5.7752 0.130517 7.0525 0.0722133ZM16.849 2.23218C15.5836 2.17445 15.2041 2.16221 11.9999 2.16221L12 2.16216C8.7958 2.16216 8.4163 2.1744 7.15091 2.23213C5.98094 2.28548 5.34555 2.48097 4.9227 2.64531C4.40149 2.83768 3.93002 3.14442 3.54295 3.54297C3.14435 3.93005 2.83759 4.40155 2.64519 4.92279C2.48086 5.34569 2.28542 5.98103 2.23202 7.15102C2.17429 8.41651 2.16205 8.79592 2.16205 12.0002C2.16205 15.2044 2.17429 15.584 2.23202 16.8493C2.28537 18.0193 2.48086 18.6547 2.64519 19.0775C2.83757 19.5988 3.1443 20.0702 3.54285 20.4573C3.92992 20.8559 4.4014 21.1626 4.92261 21.355C5.3455 21.5193 5.98084 21.7148 7.15082 21.7682C8.41611 21.8259 8.79547 21.8381 11.9999 21.8381C15.2044 21.8381 15.5839 21.8259 16.849 21.7682C18.019 21.7148 18.6544 21.5193 19.0772 21.355C20.1238 20.9513 20.951 20.1241 21.3547 19.0775C21.519 18.6546 21.7144 18.0193 21.7678 16.8493C21.8256 15.5838 21.8378 15.2044 21.8378 12.0002C21.8378 8.79592 21.8256 8.41642 21.7678 7.15102C21.7145 5.98103 21.519 5.34564 21.3547 4.92279C21.1623 4.40157 20.8556 3.9301 20.457 3.54302C20.0699 3.14447 19.5985 2.83773 19.0772 2.64536C18.6544 2.48102 18.019 2.28558 16.849 2.23218ZM6 12C6 8.68629 8.68629 6 12 6C15.3137 6 18 8.68629 18 12C18 15.3137 15.3137 18 12 18C8.68629 18 6 15.3137 6 12ZM8.10534 12C8.10533 14.1509 9.84902 15.8947 12 15.8947C14.151 15.8947 15.8947 14.151 15.8947 12C15.8947 9.84902 14.151 8.10531 12.0001 8.1053C9.84908 8.10529 8.10536 9.84899 8.10534 12ZM20 5.5C20 6.32843 19.3284 7 18.5 7C17.6716 7 17 6.32843 17 5.5C17 4.67157 17.6716 4 18.5 4C19.3284 4 20 4.67157 20 5.5Z" fill="#002558"/>
</svg>
