<svg width="18" height="22" viewBox="0 0 18 22" fill="none" xmlns="http://www.w3.org/2000/svg">
<path d="M9 0C5.50774 0 2.87427 2.73484 2.87427 6.36152V10.0854H2.00899C1.74516 10.0854 1.48392 10.1348 1.24018 10.2308C0.996437 10.3267 0.774966 10.4674 0.588414 10.6447C0.401862 10.8221 0.253881 11.0326 0.15292 11.2643C0.05196 11.496 -2.36377e-06 11.7444 0 11.9952V20.0902C-2.02609e-06 20.341 0.0519607 20.5894 0.152921 20.8211C0.253882 21.0528 0.401863 21.2633 0.588416 21.4407C0.774969 21.618 0.996439 21.7587 1.24018 21.8546C1.48392 21.9506 1.74517 22 2.00899 22H15.991C16.2548 22 16.5161 21.9506 16.7598 21.8546C17.0036 21.7587 17.225 21.618 17.4116 21.4407C17.5981 21.2633 17.7461 21.0528 17.8471 20.8211C17.948 20.5894 18 20.341 18 20.0902V11.9952C18 11.7444 17.948 11.496 17.8471 11.2643C17.7461 11.0326 17.5981 10.8221 17.4116 10.6447C17.225 10.4674 17.0036 10.3267 16.7598 10.2308C16.5161 10.1348 16.2548 10.0854 15.991 10.0854H15.1257V6.36153C15.1257 2.73484 12.4923 0 9 0ZM13.0686 10.0854H4.93142V6.36153C4.93142 3.7674 6.6046 1.95556 9 1.95556C11.3954 1.95556 13.0686 3.7674 13.0686 6.36152V10.0854Z" fill="#626A75"/>
</svg>
