<svg width="104" height="34" viewBox="0 0 104 34" fill="none" xmlns="http://www.w3.org/2000/svg">
<path d="M1.52533 21.967C1.664 22.107 2.01067 22.2469 2.42667 22.4567C2.84267 22.6666 3.39733 22.8765 4.02133 23.0164C4.64533 23.2263 5.33867 23.3662 6.17067 23.5061C7.00267 23.646 7.83467 23.716 8.80533 23.716C10.0533 23.716 11.024 23.5761 11.856 23.2263C12.6187 22.8765 13.0347 22.3168 13.0347 21.5473C13.0347 20.8477 12.7573 20.358 12.272 20.0082C11.7867 19.6584 10.8853 19.4485 9.568 19.2386L6.79467 18.8888C5.824 18.8189 4.992 18.609 4.16 18.3991C3.328 18.1893 2.704 17.8395 2.08 17.3497C1.52533 16.93 1.04 16.3703 0.762667 15.7407C0.416 15.1111 0.277333 14.3415 0.277333 13.4321C0.277333 12.6625 0.416 11.9629 0.693333 11.2633C0.970667 10.5637 1.456 10.0041 2.08 9.4444C2.84267 9.0946 3.67467 8.67485 4.71467 8.39502C5.75467 8.11518 7.00267 7.97526 8.45867 7.97526C10.9547 7.97526 12.8267 8.2551 14.2133 8.81477C15.6 9.37444 16.2933 10.074 16.2933 10.9835C16.2933 11.2633 16.224 11.5432 16.1547 11.753C16.016 11.9629 15.9467 12.1728 15.808 12.3127C15.6693 12.4526 15.5307 12.5925 15.392 12.7325C15.2533 12.8724 15.1147 12.8724 15.0453 12.9423C14.976 12.8724 14.768 12.6625 14.4213 12.5226C14.0747 12.3127 13.6587 12.1028 13.104 11.893C12.5493 11.6831 11.9253 11.5432 11.1627 11.3333C10.4 11.1934 9.49867 11.1234 8.528 11.1234C5.75467 11.1234 4.368 11.823 4.368 13.2921C4.368 13.9218 4.64533 14.4115 5.13067 14.6913C5.68533 15.0411 6.37867 15.251 7.34933 15.3909L10.9547 15.8806C12.896 16.1604 14.4907 16.7201 15.5307 17.4897C16.64 18.3292 17.1947 19.5185 17.1947 21.1275C17.1947 22.9465 16.5013 24.3456 15.0453 25.465C13.6587 26.5144 11.5787 27.074 8.944 27.074C7.696 27.074 6.51733 27.0041 5.47733 26.7942C4.43733 26.5843 3.536 26.3744 2.77333 26.1646C2.01067 25.8847 1.38667 25.6749 0.901333 25.395C0.416 25.1851 0.138667 24.9753 0 24.8353L1.52533 21.967Z" fill="#002558"/>
<path d="M29.6747 7.90538C31.0613 7.90538 32.3093 8.11525 33.5573 8.60497C34.736 9.09468 35.776 9.72431 36.6773 10.5638C37.5787 11.4033 38.272 12.4527 38.7573 13.572C39.2427 14.8313 39.52 16.0906 39.52 17.4897C39.52 18.819 39.2427 20.0782 38.7573 21.2675C38.272 22.4568 37.5787 23.4362 36.6773 24.2758C35.776 25.1153 34.736 25.8148 33.5573 26.3046C32.3787 26.7943 31.0613 27.0741 29.6747 27.0741C28.288 27.0741 27.04 26.7943 25.792 26.3046C24.6133 25.8148 23.5733 25.1153 22.672 24.2758C21.7707 23.4362 21.0773 22.3869 20.592 21.2675C20.1067 20.0782 19.8293 18.8889 19.8293 17.4897C19.8293 16.0906 20.1067 14.8313 20.592 13.712C21.0773 12.5227 21.7707 11.5432 22.672 10.7037C23.5733 9.86422 24.6133 9.16464 25.792 8.74488C27.04 8.18521 28.288 7.90538 29.6747 7.90538ZM29.6747 23.3663C30.5067 23.3663 31.2 23.2264 31.8933 22.9465C32.5867 22.6667 33.1413 22.2469 33.6267 21.6873C34.112 21.1276 34.4587 20.498 34.736 19.7984C35.0133 19.0988 35.152 18.3292 35.152 17.4897C35.152 16.6502 35.0133 15.8807 34.736 15.1111C34.4587 14.4116 34.112 13.7819 33.6267 13.2222C33.1413 12.6626 32.5867 12.3128 31.8933 11.963C31.2 11.6832 30.4373 11.5432 29.6747 11.5432C28.8427 11.5432 28.08 11.6832 27.3867 11.963C26.6933 12.2428 26.1387 12.6626 25.6533 13.2222C25.168 13.7819 24.752 14.4116 24.544 15.1111C24.2667 15.8107 24.128 16.6502 24.128 17.4897C24.128 18.3292 24.2667 19.0988 24.544 19.7984C24.8213 20.498 25.168 21.1276 25.6533 21.6873C26.1387 22.2469 26.6933 22.6667 27.3867 22.9465C28.08 23.2264 28.8427 23.3663 29.6747 23.3663Z" fill="#002558"/>
<path d="M42.5012 18.2593C42.5012 16.5803 42.7092 15.1111 43.1946 13.8519C43.6799 12.5926 44.3039 11.4733 45.2052 10.6338C46.0372 9.79427 47.0772 9.09468 48.3252 8.60497C49.5039 8.18521 50.8906 7.90538 52.3466 7.90538C53.7332 7.90538 54.9119 8.11525 56.0906 8.60497C57.1999 9.09468 58.2399 9.72431 59.0719 10.5638C59.9039 11.4033 60.5972 12.3827 61.0826 13.572C61.5679 14.7613 61.7759 16.0206 61.7759 17.3498C61.7759 18.749 61.5679 20.0083 61.0826 21.1976C60.5972 22.3869 59.9732 23.3663 59.1412 24.2058C58.3092 25.0453 57.3386 25.6749 56.2292 26.1646C55.1199 26.6544 53.9412 26.8642 52.6239 26.8642C51.2372 26.8642 50.0586 26.5844 49.0186 26.0947C47.9786 25.535 47.1466 24.9054 46.5919 24.1358V33.5803H42.5012V18.2593ZM51.9999 23.2963C52.8319 23.2963 53.5252 23.1564 54.2186 22.8766C54.9119 22.5967 55.4666 22.177 55.9519 21.6173C56.4372 21.0576 56.7839 20.498 57.0612 19.7284C57.3386 18.9589 57.4772 18.2593 57.4772 17.4198C57.4772 16.5803 57.3386 15.8107 57.0612 15.1111C56.7839 14.4116 56.4372 13.7819 55.9519 13.2922C55.4666 12.8025 54.9119 12.3827 54.2186 12.1029C53.5252 11.8231 52.8319 11.6832 51.9999 11.6832C51.1679 11.6832 50.4746 11.8231 49.7812 12.1029C49.0879 12.3827 48.5332 12.8025 48.0479 13.2922C47.5626 13.7819 47.2159 14.4116 46.9386 15.1111C46.6612 15.8107 46.5226 16.5803 46.5226 17.4897C46.5226 18.3292 46.6612 19.0988 46.9386 19.7984C47.2159 20.498 47.5626 21.1276 48.0479 21.6873C48.5332 22.2469 49.0879 22.5967 49.7812 22.9465C50.4052 23.1564 51.1679 23.2963 51.9999 23.2963Z" fill="#002558"/>
<path d="M65.1733 1.88889C65.1733 1.25926 65.3813 0.769547 65.728 0.419753C66.0747 0.139918 66.6293 0 67.3227 0C67.7387 0 68.1547 0.0699589 68.5013 0.139918C68.848 0.279835 69.1253 0.349794 69.1947 0.349794V10.214C69.68 9.65432 70.3733 9.09465 71.344 8.60494C72.3147 8.11523 73.4933 7.83539 75.0187 7.83539C76.128 7.83539 77.0987 7.97531 78 8.3251C78.9013 8.60494 79.7333 9.09465 80.3573 9.72428C81.0507 10.3539 81.536 11.1235 81.8827 12.0329C82.2293 12.9424 82.4373 13.9918 82.4373 15.251V26.5144H78.3467V16.4403C78.3467 14.8313 78 13.642 77.376 12.8724C76.752 12.0329 75.5733 11.6831 73.9787 11.6831C72.384 11.6831 71.136 12.1728 70.304 13.0823C69.472 14.0617 69.056 15.251 69.056 16.8601V26.5144H65.1733V1.88889Z" fill="#002558"/>
<path d="M86.5974 10.3539C86.5974 9.7243 86.8054 9.23459 87.1521 8.88479C87.4987 8.60496 88.0534 8.39508 88.7467 8.39508C89.1627 8.39508 89.5787 8.46504 89.9254 8.535C90.2721 8.67492 90.5494 8.74488 90.6881 8.74488V18.3292C90.6881 19.7284 91.0347 20.8478 91.7974 21.6873C92.5601 22.5268 93.6694 22.9465 95.2641 22.9465C96.7201 22.9465 97.8294 22.5268 98.6614 21.6873C99.4934 20.8478 99.9094 19.5885 99.9094 17.9095V10.214C99.9094 9.58438 100.117 9.09467 100.464 8.74488C100.811 8.46504 101.365 8.25517 102.059 8.25517C102.475 8.25517 102.891 8.32512 103.237 8.39508C103.584 8.535 103.861 8.60496 104 8.60496V24.3457C104 26.0247 103.792 27.4939 103.307 28.6832C102.891 29.8725 102.197 30.8519 101.365 31.6214C100.533 32.391 99.5627 32.9506 98.3841 33.3004C97.2054 33.6502 95.9574 33.7901 94.5014 33.7901C93.5307 33.7901 92.6294 33.7202 91.7974 33.6502C90.9654 33.5103 90.2721 33.4404 89.6481 33.3004C89.0241 33.1605 88.4694 33.0206 88.1227 32.8807C87.7067 32.7408 87.4294 32.6708 87.2907 32.6008C87.4987 32.1111 87.6374 31.6214 87.8454 31.0618C87.9841 30.572 88.1921 30.0124 88.3307 29.5227C88.4694 29.5926 88.7467 29.6626 89.0934 29.8025C89.4401 29.9424 89.8561 30.0124 90.3414 30.1523C90.8267 30.2922 91.3814 30.3622 92.0054 30.4321C92.6294 30.5021 93.3228 30.572 94.0161 30.572C94.9174 30.572 95.7494 30.5021 96.5121 30.2922C97.2747 30.0823 97.8987 29.7325 98.3841 29.2428C98.8694 28.7531 99.2854 28.0535 99.5628 27.214C99.8401 26.3745 99.9787 25.3251 99.9787 24.1358C99.4934 24.8354 98.7307 25.3951 97.7601 25.8148C96.7201 26.2346 95.6107 26.4445 94.4321 26.4445C93.3227 26.4445 92.2134 26.3045 91.2428 25.9548C90.2721 25.605 89.4401 25.1852 88.7467 24.5556C88.0534 23.9259 87.4987 23.1564 87.1521 22.2469C86.7361 21.3375 86.5974 20.2881 86.5974 19.0988V10.3539Z" fill="#002558"/>
</svg>
