<svg width="375" height="791" viewBox="0 0 375 791" fill="none" xmlns="http://www.w3.org/2000/svg">
<g clip-path="url(#clip0)">
<path fill-rule="evenodd" clip-rule="evenodd" d="M335.253 182.814C369.519 189.053 393.401 216.416 424.53 232.053C464.563 252.161 522.847 247.523 543.395 287.364C563.714 326.763 535.246 373.609 518.762 414.763C503.363 453.199 483.208 488.733 451.889 515.786C418.256 544.838 379.665 572.309 335.253 573.271C290.423 574.242 250.225 548.559 214.893 520.918C180.616 494.103 148.638 461.441 138.251 419.152C128.226 378.337 145.981 337.676 160.169 298.118C173.896 259.848 184.861 216.944 218.793 194.597C252.208 172.592 295.902 175.65 335.253 182.814Z" fill="#F7F6F5"/>
</g>
<g clip-path="url(#clip1)">
<path fill-rule="evenodd" clip-rule="evenodd" d="M302.327 448.195C356.267 421.598 424.625 419.404 464.733 464.224C509.131 513.84 517.647 590.989 477.915 644.41C443.869 690.189 377.315 672.948 323.42 654.23C304.927 647.851 288.685 636.235 276.672 620.795C264.658 605.355 257.39 586.756 255.752 567.261C250.952 520.387 260.069 469.027 302.327 448.195Z" fill="#EEE8E5"/>
</g>
<defs>
<clipPath id="clip0">
<path d="M135.318 177.513H550.438V573.299H135.318V177.513Z" fill="white"/>
</clipPath>
<clipPath id="clip1">
<path d="M217.205 481.237L445.596 390.76L540.681 630.782L312.29 721.259L217.205 481.237Z" fill="white"/>
</clipPath>
</defs>
</svg>
