<svg width="795" height="1390" viewBox="0 0 795 1390" fill="none" xmlns="http://www.w3.org/2000/svg">
<g clip-path="url(#clip0)">
<path fill-rule="evenodd" clip-rule="evenodd" d="M649.76 321.485C710.018 332.455 752.014 380.574 806.755 408.072C877.154 443.433 979.649 435.276 1015.78 505.339C1051.52 574.622 1001.45 657.003 972.466 729.372C945.385 796.964 909.943 859.451 854.868 907.025C795.723 958.113 727.859 1006.42 649.76 1008.11C570.924 1009.82 500.235 964.657 438.103 916.049C377.827 868.895 321.592 811.458 303.326 737.091C285.697 665.317 316.919 593.814 341.869 524.25C366.008 456.951 385.29 381.503 444.961 342.205C503.722 303.508 580.56 308.887 649.76 321.485Z" fill="#F7F6F5"/>
</g>
<g clip-path="url(#clip1)">
<path fill-rule="evenodd" clip-rule="evenodd" d="M591.858 788.163C686.713 741.392 806.923 737.534 877.454 816.351C955.53 903.602 970.505 1039.27 900.635 1133.21C840.764 1213.72 723.727 1183.4 628.951 1150.48C596.43 1139.26 567.869 1118.84 546.743 1091.69C525.617 1064.53 512.836 1031.83 509.956 997.545C501.514 915.116 517.546 824.798 591.858 788.163Z" fill="#EEE8E5"/>
</g>
<defs>
<clipPath id="clip0">
<path d="M298.168 312.162H1028.17V1008.16H298.168V312.162Z" fill="white"/>
</clipPath>
<clipPath id="clip1">
<path d="M442.168 846.27L843.801 687.162L1011.01 1109.25L609.378 1268.36L442.168 846.27Z" fill="white"/>
</clipPath>
</defs>
</svg>
